<mxfile host="65bd71144e">
    <diagram id="qZ4XBwiL8yS3GFS4kljw" name="Page-1">
        <mxGraphModel dx="906" dy="526" grid="1" gridSize="10" guides="0" tooltips="1" connect="1" arrows="1" fold="1" page="1" pageScale="1" pageWidth="1200" pageHeight="1920" background="none" math="0" shadow="1">
            <root>
                <mxCell id="0"/>
                <mxCell id="1" parent="0"/>
                <mxCell id="2" value="App" style="rounded=0;whiteSpace=wrap;html=1;" vertex="1" parent="1">
                    <mxGeometry x="390" y="80" width="170" height="80" as="geometry"/>
                </mxCell>
                <mxCell id="3" value="Bellow" style="rounded=0;whiteSpace=wrap;html=1;" vertex="1" parent="1">
                    <mxGeometry x="390" y="200" width="170" height="80" as="geometry"/>
                </mxCell>
                <mxCell id="4" value="Accordion" style="rounded=0;whiteSpace=wrap;html=1;" vertex="1" parent="1">
                    <mxGeometry x="390" y="320" width="170" height="80" as="geometry"/>
                </mxCell>
                <mxCell id="5" value="Accordion" style="rounded=0;whiteSpace=wrap;html=1;" vertex="1" parent="1">
                    <mxGeometry x="150" y="320" width="170" height="80" as="geometry"/>
                </mxCell>
                <mxCell id="6" value="Accordion" style="rounded=0;whiteSpace=wrap;html=1;" vertex="1" parent="1">
                    <mxGeometry x="640" y="320" width="170" height="80" as="geometry"/>
                </mxCell>
            </root>
        </mxGraphModel>
    </diagram>
</mxfile>